<svg width="32" height="23" viewBox="0 0 32 23" fill="none" xmlns="http://www.w3.org/2000/svg">
<path d="M11.5631 22.8857L11.5545 22.8818L11.5274 22.8665C11.369 22.776 11.2118 22.6832 11.056 22.5879C9.18254 21.4322 7.43172 20.0744 5.83262 18.5373C3.00062 15.7938 0 11.7227 0 6.7086C0 2.96717 3.03262 9.06622e-05 6.69292 9.06622e-05C7.71047 -0.00508374 8.71604 0.227976 9.63486 0.681937C10.5537 1.1359 11.3621 1.79908 12 2.62216C12.638 1.79891 13.4467 1.13563 14.3657 0.681659C15.2847 0.227691 16.2906 -0.00527615 17.3083 9.06622e-05C20.9674 9.06622e-05 24 2.96717 24 6.7086C24 11.724 20.9994 15.7951 18.1674 18.536C16.5683 20.0732 14.8175 21.4309 12.944 22.5867C12.7882 22.6823 12.631 22.7756 12.4726 22.8665L12.4455 22.8818L12.4369 22.887L12.4332 22.8882C12.2998 22.9616 12.151 23 12 23C11.849 23 11.7002 22.9616 11.5668 22.8882L11.5631 22.8857Z" fill="white"/>
<path d="M23.6215 18.9L26.9042 12.95H24.6403V9.1L21.2444 15.05H23.6215V18.9ZM24.0743 21C23.0304 21 22.0493 20.8162 21.1312 20.4487C20.213 20.0812 19.4144 19.5825 18.7352 18.9525C18.056 18.3225 17.5183 17.5817 17.1221 16.73C16.7259 15.8783 16.5278 14.9683 16.5278 14C16.5278 13.0317 16.7259 12.1217 17.1221 11.27C17.5183 10.4183 18.056 9.6775 18.7352 9.0475C19.4144 8.4175 20.213 7.91875 21.1312 7.55125C22.0493 7.18375 23.0304 7 24.0743 7C25.1182 7 26.0993 7.18375 27.0174 7.55125C27.9356 7.91875 28.7342 8.4175 29.4134 9.0475C30.0926 9.6775 30.6303 10.4183 31.0265 11.27C31.4227 12.1217 31.6208 13.0317 31.6208 14C31.6208 14.9683 31.4227 15.8783 31.0265 16.73C30.6303 17.5817 30.0926 18.3225 29.4134 18.9525C28.7342 19.5825 27.9356 20.0812 27.0174 20.4487C26.0993 20.8162 25.1182 21 24.0743 21Z" fill="#894189"/>
<path d="M23.2837 18.5001L26.4101 12.8334H24.254V9.16675L21.0198 14.8334H23.2837V18.5001ZM23.7149 20.5001C22.7207 20.5001 21.7864 20.3251 20.912 19.9751C20.0375 19.6251 19.2769 19.1501 18.6301 18.5501C17.9832 17.9501 17.4711 17.2445 17.0938 16.4334C16.7165 15.6223 16.5278 14.7556 16.5278 13.8334C16.5278 12.9112 16.7165 12.0445 17.0938 11.2334C17.4711 10.4223 17.9832 9.71675 18.6301 9.11675C19.2769 8.51675 20.0375 8.04175 20.912 7.69175C21.7864 7.34175 22.7207 7.16675 23.7149 7.16675C24.7092 7.16675 25.6435 7.34175 26.5179 7.69175C27.3924 8.04175 28.153 8.51675 28.7998 9.11675C29.4467 9.71675 29.9587 10.4223 30.3361 11.2334C30.7134 12.0445 30.9021 12.9112 30.9021 13.8334C30.9021 14.7556 30.7134 15.6223 30.3361 16.4334C29.9587 17.2445 29.4467 17.9501 28.7998 18.5501C28.153 19.1501 27.3924 19.6251 26.5179 19.9751C25.6435 20.3251 24.7092 20.5001 23.7149 20.5001Z" fill="white"/>
</svg>
